<?xml version="1.0" encoding="iso-8859-1"?>
<!-- Generator: Adobe Illustrator 19.0.0, SVG Export Plug-In . SVG Version: 6.00 Build 0)  -->
<svg version="1.1" id="Layer_1" xmlns="http://www.w3.org/2000/svg" xmlns:xlink="http://www.w3.org/1999/xlink" x="0px" y="0px"
	 viewBox="0 0 512 512" style="enable-background:new 0 0 512 512;" xml:space="preserve">
<g>
	<g>
		<path d="M431.616,187.528c8.288-11.056,13.392-24.688,13.392-39.664c0.016-36.336-28.976-65.792-64.752-65.792
			c-35.76,0-64.752,29.456-64.752,65.792s28.992,65.792,64.752,65.792c15.296,0,29.168-5.616,40.24-14.624l47.6,48.176
			l11.408-11.216L431.616,187.528z M380.256,197.672c-26.88,0-48.752-22.336-48.752-49.792s21.872-49.792,48.752-49.792
			s48.752,22.336,48.752,49.792S407.152,197.672,380.256,197.672z"/>
	</g>
</g>
<g>
	<g>
		<rect x="277.328" y="283.896" width="234.672" height="16"/>
	</g>
</g>
<g>
	<g>
		<rect x="277.328" y="348.968" width="234.672" height="16"/>
	</g>
</g>
<g>
	<g>
		<rect x="277.328" y="413.928" width="234.672" height="16"/>
	</g>
</g>
<g>
	<g>
		<rect y="88.824" width="234.672" height="16"/>
	</g>
</g>
<g>
	<g>
		<rect y="153.848" width="234.672" height="16"/>
	</g>
</g>
<g>
	<g>
		<rect y="218.856" width="234.672" height="16"/>
	</g>
</g>
<g>
	<g>
		<rect y="283.896" width="234.672" height="16"/>
	</g>
</g>
<g>
	<g>
		<rect y="348.968" width="234.672" height="16"/>
	</g>
</g>
<g>
	<g>
		<rect y="413.928" width="234.672" height="16"/>
	</g>
</g>
<g>
</g>
<g>
</g>
<g>
</g>
<g>
</g>
<g>
</g>
<g>
</g>
<g>
</g>
<g>
</g>
<g>
</g>
<g>
</g>
<g>
</g>
<g>
</g>
<g>
</g>
<g>
</g>
<g>
</g>
</svg>
