<svg xmlns="http://www.w3.org/2000/svg" width="22.547" height="17.21" viewBox="0 0 22.547 17.21">
  <g id="logout" transform="translate(0.25 -58.7)">
    <g id="Group_366" data-name="Group 366" transform="translate(0 58.95)">
      <path id="Path_1363" data-name="Path 1363" d="M0,61.736V72.873A2.779,2.779,0,0,0,2.76,75.66h8.915a2.779,2.779,0,0,0,2.76-2.786v-1.8a.547.547,0,1,0-1.093,0v1.8A1.683,1.683,0,0,1,11.67,74.56H2.76a1.683,1.683,0,0,1-1.671-1.687V61.736A1.683,1.683,0,0,1,2.76,60.049h8.915a1.683,1.683,0,0,1,1.671,1.687v1.8a.547.547,0,1,0,1.093,0v-1.8a2.779,2.779,0,0,0-2.76-2.786H2.76A2.776,2.776,0,0,0,0,61.736Z" transform="translate(0 -58.95)" fill="#707070" stroke="#707070" stroke-width="0.5"/>
      <path id="Path_1364" data-name="Path 1364" d="M214.26,157.493a.54.54,0,0,0,.773,0l3.729-3.8a.559.559,0,0,0,0-.783l-3.729-3.8a.535.535,0,0,0-.769,0,.559.559,0,0,0,0,.783l2.8,2.852H206.847a.557.557,0,0,0,0,1.114h10.213l-2.8,2.852A.554.554,0,0,0,214.26,157.493Z" transform="translate(-196.921 -144.95)" fill="#707070" stroke="#707070" stroke-width="0.5"/>
    </g>
  </g>
</svg>
