<svg xmlns="http://www.w3.org/2000/svg" width="14.534" height="12.203" viewBox="0 0 14.534 12.203">
  <g id="arrow2" transform="translate(15.054 -0.845) rotate(90)">
    <g id="arrow2-2" data-name="arrow2" transform="translate(13.201 0.142) rotate(90)">
      <g id="Group_54" data-name="Group 54" transform="translate(0.234 0.152)">
        <path id="Path_45" data-name="Path 45" d="M13.717,4.949l.023.005H4.014l3.057-3.1a.818.818,0,0,0,0-1.141L6.6.235a.79.79,0,0,0-1.123,0L.232,5.531a.816.816,0,0,0,0,1.139l5.241,5.3a.791.791,0,0,0,1.123,0l.476-.481a.8.8,0,0,0,.232-.568.776.776,0,0,0-.232-.557L3.98,7.247h9.748a.828.828,0,0,0,.806-.824v-.68a.812.812,0,0,0-.817-.794Z" transform="translate(0.144)" fill="#333"/>
      </g>
    </g>
  </g>
</svg>
