<svg xmlns="http://www.w3.org/2000/svg" width="64" height="56" viewBox="0 0 64 56">
  <g id="profile-svgrepo-com" transform="translate(0 -4)">
    <path id="Path_12670" data-name="Path 12670" d="M32,42c8.271,0,15-8.523,15-19S40.271,4,32,4,17,12.523,17,23,23.729,42,32,42ZM32,8c5.963,0,11,6.869,11,15S37.963,38,32,38,21,31.131,21,23,26.037,8,32,8Z" fill="#707070"/>
    <path id="Path_12671" data-name="Path 12671" d="M4.1,45.367l-4,12A2,2,0,0,0,2,60H62a2,2,0,0,0,1.9-2.633l-4-12a2,2,0,0,0-1.348-1.29l-14-4a1.991,1.991,0,0,0-1.444.134L32,45.764,20.9,40.211a2,2,0,0,0-1.444-.134l-14,4A2,2,0,0,0,4.1,45.367Zm15.7-1.23,11.3,5.652a2,2,0,0,0,1.789,0l11.3-5.652,12.238,3.5L59.226,56H4.774l2.789-8.367Z" fill="#707070"/>
  </g>
</svg>
