<svg xmlns="http://www.w3.org/2000/svg" width="512" height="347.855" viewBox="0 0 512 347.855">
  <g id="columns" transform="translate(0 -82.072)">
    <g id="Group_11741" data-name="Group 11741">
      <g id="Group_11740" data-name="Group 11740">
        <path id="Path_12670" data-name="Path 12670" d="M431.616,187.528a65.837,65.837,0,0,0,13.392-39.664c.016-36.336-28.976-65.792-64.752-65.792-35.76,0-64.752,29.456-64.752,65.792s28.992,65.792,64.752,65.792a63.509,63.509,0,0,0,40.24-14.624l47.6,48.176L479.5,235.992Zm-51.36,10.144c-26.88,0-48.752-22.336-48.752-49.792s21.872-49.792,48.752-49.792,48.752,22.336,48.752,49.792S407.152,197.672,380.256,197.672Z" fill="#fff"/>
      </g>
    </g>
    <g id="Group_11743" data-name="Group 11743">
      <g id="Group_11742" data-name="Group 11742">
        <rect id="Rectangle_57" data-name="Rectangle 57" width="234.672" height="16" transform="translate(277.328 283.896)" fill="#fff"/>
      </g>
    </g>
    <g id="Group_11745" data-name="Group 11745">
      <g id="Group_11744" data-name="Group 11744">
        <rect id="Rectangle_58" data-name="Rectangle 58" width="234.672" height="16" transform="translate(277.328 348.968)" fill="#fff"/>
      </g>
    </g>
    <g id="Group_11747" data-name="Group 11747">
      <g id="Group_11746" data-name="Group 11746">
        <rect id="Rectangle_59" data-name="Rectangle 59" width="234.672" height="16" transform="translate(277.328 413.928)" fill="#fff"/>
      </g>
    </g>
    <g id="Group_11749" data-name="Group 11749">
      <g id="Group_11748" data-name="Group 11748">
        <rect id="Rectangle_60" data-name="Rectangle 60" width="234.672" height="16" transform="translate(0 88.824)" fill="#fff"/>
      </g>
    </g>
    <g id="Group_11751" data-name="Group 11751">
      <g id="Group_11750" data-name="Group 11750">
        <rect id="Rectangle_61" data-name="Rectangle 61" width="234.672" height="16" transform="translate(0 153.848)" fill="#fff"/>
      </g>
    </g>
    <g id="Group_11753" data-name="Group 11753">
      <g id="Group_11752" data-name="Group 11752">
        <rect id="Rectangle_62" data-name="Rectangle 62" width="234.672" height="16" transform="translate(0 218.856)" fill="#fff"/>
      </g>
    </g>
    <g id="Group_11755" data-name="Group 11755">
      <g id="Group_11754" data-name="Group 11754">
        <rect id="Rectangle_63" data-name="Rectangle 63" width="234.672" height="16" transform="translate(0 283.896)" fill="#fff"/>
      </g>
    </g>
    <g id="Group_11757" data-name="Group 11757">
      <g id="Group_11756" data-name="Group 11756">
        <rect id="Rectangle_64" data-name="Rectangle 64" width="234.672" height="16" transform="translate(0 348.968)" fill="#fff"/>
      </g>
    </g>
    <g id="Group_11759" data-name="Group 11759">
      <g id="Group_11758" data-name="Group 11758">
        <rect id="Rectangle_65" data-name="Rectangle 65" width="234.672" height="16" transform="translate(0 413.928)" fill="#fff"/>
      </g>
    </g>
  </g>
</svg>
